<mxfile host="app.diagrams.net" modified="2023-01-31T16:12:33.638Z" agent="5.0 (Windows NT 10.0; Win64; x64) AppleWebKit/537.36 (KHTML, like Gecko) Chrome/109.0.0.0 Safari/537.36" etag="ChFokumlXBtcyUSdmW9E" version="20.8.13" type="github">
  <diagram name="Page-1" id="86-W58Dd_mb5PwPu8C0x">
    <mxGraphModel dx="1985" dy="1155" grid="1" gridSize="10" guides="1" tooltips="1" connect="1" arrows="1" fold="1" page="1" pageScale="1" pageWidth="827" pageHeight="1169" math="0" shadow="0">
      <root>
        <mxCell id="0" />
        <mxCell id="1" parent="0" />
        <mxCell id="5fQX-SkHfRX-rgIxEtE9-2" style="edgeStyle=orthogonalEdgeStyle;rounded=0;orthogonalLoop=1;jettySize=auto;html=1;" parent="1" source="5fQX-SkHfRX-rgIxEtE9-1" edge="1">
          <mxGeometry relative="1" as="geometry">
            <mxPoint x="370" y="130" as="targetPoint" />
          </mxGeometry>
        </mxCell>
        <mxCell id="5fQX-SkHfRX-rgIxEtE9-1" value="start" style="ellipse;whiteSpace=wrap;html=1;" parent="1" vertex="1">
          <mxGeometry x="310" width="120" height="80" as="geometry" />
        </mxCell>
        <mxCell id="5fQX-SkHfRX-rgIxEtE9-4" style="edgeStyle=orthogonalEdgeStyle;rounded=0;orthogonalLoop=1;jettySize=auto;html=1;exitX=0.5;exitY=1;exitDx=0;exitDy=0;" parent="1" source="5fQX-SkHfRX-rgIxEtE9-3" edge="1">
          <mxGeometry relative="1" as="geometry">
            <mxPoint x="370" y="240" as="targetPoint" />
          </mxGeometry>
        </mxCell>
        <mxCell id="5fQX-SkHfRX-rgIxEtE9-3" value="read N" style="shape=parallelogram;perimeter=parallelogramPerimeter;whiteSpace=wrap;html=1;fixedSize=1;" parent="1" vertex="1">
          <mxGeometry x="310" y="130" width="120" height="60" as="geometry" />
        </mxCell>
        <mxCell id="5fQX-SkHfRX-rgIxEtE9-6" style="edgeStyle=orthogonalEdgeStyle;rounded=0;orthogonalLoop=1;jettySize=auto;html=1;" parent="1" source="5fQX-SkHfRX-rgIxEtE9-5" target="5fQX-SkHfRX-rgIxEtE9-7" edge="1">
          <mxGeometry relative="1" as="geometry">
            <mxPoint x="370" y="340" as="targetPoint" />
          </mxGeometry>
        </mxCell>
        <mxCell id="5fQX-SkHfRX-rgIxEtE9-5" value="let ctrl=0, sum=0" style="rounded=0;whiteSpace=wrap;html=1;" parent="1" vertex="1">
          <mxGeometry x="310" y="240" width="120" height="50" as="geometry" />
        </mxCell>
        <mxCell id="5fQX-SkHfRX-rgIxEtE9-8" style="edgeStyle=orthogonalEdgeStyle;rounded=0;orthogonalLoop=1;jettySize=auto;html=1;" parent="1" source="5fQX-SkHfRX-rgIxEtE9-7" edge="1">
          <mxGeometry relative="1" as="geometry">
            <mxPoint x="370" y="420" as="targetPoint" />
          </mxGeometry>
        </mxCell>
        <mxCell id="5fQX-SkHfRX-rgIxEtE9-7" value="read num" style="shape=parallelogram;perimeter=parallelogramPerimeter;whiteSpace=wrap;html=1;fixedSize=1;" parent="1" vertex="1">
          <mxGeometry x="310" y="310" width="120" height="60" as="geometry" />
        </mxCell>
        <mxCell id="5fQX-SkHfRX-rgIxEtE9-10" style="edgeStyle=orthogonalEdgeStyle;rounded=0;orthogonalLoop=1;jettySize=auto;html=1;" parent="1" source="5fQX-SkHfRX-rgIxEtE9-9" edge="1">
          <mxGeometry relative="1" as="geometry">
            <mxPoint x="370" y="520" as="targetPoint" />
          </mxGeometry>
        </mxCell>
        <mxCell id="5fQX-SkHfRX-rgIxEtE9-9" value="ctrl=ctrl =1" style="rounded=0;whiteSpace=wrap;html=1;" parent="1" vertex="1">
          <mxGeometry x="310" y="420" width="120" height="50" as="geometry" />
        </mxCell>
        <mxCell id="5fQX-SkHfRX-rgIxEtE9-12" style="edgeStyle=orthogonalEdgeStyle;rounded=0;orthogonalLoop=1;jettySize=auto;html=1;" parent="1" source="5fQX-SkHfRX-rgIxEtE9-11" edge="1">
          <mxGeometry relative="1" as="geometry">
            <mxPoint x="370" y="620" as="targetPoint" />
          </mxGeometry>
        </mxCell>
        <mxCell id="5fQX-SkHfRX-rgIxEtE9-11" value="sqr=num*num" style="rounded=0;whiteSpace=wrap;html=1;" parent="1" vertex="1">
          <mxGeometry x="310" y="500" width="120" height="60" as="geometry" />
        </mxCell>
        <mxCell id="5fQX-SkHfRX-rgIxEtE9-15" style="edgeStyle=orthogonalEdgeStyle;rounded=0;orthogonalLoop=1;jettySize=auto;html=1;" parent="1" source="5fQX-SkHfRX-rgIxEtE9-14" edge="1">
          <mxGeometry relative="1" as="geometry">
            <mxPoint x="370" y="710" as="targetPoint" />
          </mxGeometry>
        </mxCell>
        <mxCell id="5fQX-SkHfRX-rgIxEtE9-14" value="sum=sum*sqr" style="rounded=0;whiteSpace=wrap;html=1;" parent="1" vertex="1">
          <mxGeometry x="310" y="610" width="120" height="60" as="geometry" />
        </mxCell>
        <mxCell id="5fQX-SkHfRX-rgIxEtE9-25" value="NO" style="edgeStyle=orthogonalEdgeStyle;rounded=0;orthogonalLoop=1;jettySize=auto;html=1;exitX=1;exitY=0.5;exitDx=0;exitDy=0;" parent="1" source="5fQX-SkHfRX-rgIxEtE9-17" edge="1">
          <mxGeometry relative="1" as="geometry">
            <mxPoint x="510" y="340" as="targetPoint" />
          </mxGeometry>
        </mxCell>
        <mxCell id="xhBVHMHtzbIAq4gKa048-4" style="edgeStyle=orthogonalEdgeStyle;rounded=0;orthogonalLoop=1;jettySize=auto;html=1;exitX=0.5;exitY=1;exitDx=0;exitDy=0;entryX=0.5;entryY=0;entryDx=0;entryDy=0;" edge="1" parent="1" source="5fQX-SkHfRX-rgIxEtE9-17" target="5fQX-SkHfRX-rgIxEtE9-19">
          <mxGeometry relative="1" as="geometry" />
        </mxCell>
        <mxCell id="5fQX-SkHfRX-rgIxEtE9-17" value="if ctrl is less than N" style="rhombus;whiteSpace=wrap;html=1;" parent="1" vertex="1">
          <mxGeometry x="330" y="710" width="80" height="80" as="geometry" />
        </mxCell>
        <mxCell id="5fQX-SkHfRX-rgIxEtE9-20" style="edgeStyle=orthogonalEdgeStyle;rounded=0;orthogonalLoop=1;jettySize=auto;html=1;" parent="1" source="5fQX-SkHfRX-rgIxEtE9-19" edge="1">
          <mxGeometry relative="1" as="geometry">
            <mxPoint x="370" y="920" as="targetPoint" />
          </mxGeometry>
        </mxCell>
        <mxCell id="5fQX-SkHfRX-rgIxEtE9-19" value="print sum" style="rounded=0;whiteSpace=wrap;html=1;" parent="1" vertex="1">
          <mxGeometry x="310" y="810" width="120" height="60" as="geometry" />
        </mxCell>
        <mxCell id="5fQX-SkHfRX-rgIxEtE9-21" value="STOP" style="ellipse;whiteSpace=wrap;html=1;" parent="1" vertex="1">
          <mxGeometry x="320" y="920" width="120" height="80" as="geometry" />
        </mxCell>
        <mxCell id="xhBVHMHtzbIAq4gKa048-3" value="" style="endArrow=classic;html=1;rounded=0;" edge="1" parent="1">
          <mxGeometry width="50" height="50" relative="1" as="geometry">
            <mxPoint x="510" y="340" as="sourcePoint" />
            <mxPoint x="420" y="340" as="targetPoint" />
          </mxGeometry>
        </mxCell>
        <mxCell id="xhBVHMHtzbIAq4gKa048-6" value="YES" style="text;html=1;strokeColor=none;fillColor=none;align=center;verticalAlign=middle;whiteSpace=wrap;rounded=0;" vertex="1" parent="1">
          <mxGeometry x="370" y="780" width="60" height="30" as="geometry" />
        </mxCell>
        <mxCell id="xhBVHMHtzbIAq4gKa048-7" style="edgeStyle=orthogonalEdgeStyle;rounded=0;orthogonalLoop=1;jettySize=auto;html=1;entryX=0.5;entryY=0;entryDx=0;entryDy=0;" edge="1" parent="1">
          <mxGeometry relative="1" as="geometry">
            <mxPoint x="380" y="924" as="sourcePoint" />
            <mxPoint x="380" y="924" as="targetPoint" />
          </mxGeometry>
        </mxCell>
      </root>
    </mxGraphModel>
  </diagram>
</mxfile>
